<mxfile host="Electron" agent="Mozilla/5.0 (Macintosh; Intel Mac OS X 10_15_7) AppleWebKit/537.36 (KHTML, like Gecko) draw.io/24.7.17 Chrome/128.0.6613.36 Electron/32.0.1 Safari/537.36" version="24.7.17">
  <diagram id="C5RBs43oDa-KdzZeNtuy" name="Page-1">
    <mxGraphModel dx="1114" dy="739" grid="0" gridSize="10" guides="1" tooltips="1" connect="1" arrows="1" fold="1" page="1" pageScale="1" pageWidth="1169" pageHeight="827" math="0" shadow="0">
      <root>
        <mxCell id="WIyWlLk6GJQsqaUBKTNV-0" />
        <mxCell id="WIyWlLk6GJQsqaUBKTNV-1" parent="WIyWlLk6GJQsqaUBKTNV-0" />
        <mxCell id="3SjeZ5jOU1wM5McMUVgE-2" value="" style="rounded=1;orthogonalLoop=1;jettySize=auto;html=1;fontSize=15;labelBackgroundColor=none;fontColor=default;" parent="WIyWlLk6GJQsqaUBKTNV-1" source="3SjeZ5jOU1wM5McMUVgE-0" target="3SjeZ5jOU1wM5McMUVgE-1" edge="1">
          <mxGeometry relative="1" as="geometry" />
        </mxCell>
        <mxCell id="3SjeZ5jOU1wM5McMUVgE-4" value="" style="rounded=1;orthogonalLoop=1;jettySize=auto;html=1;fontSize=15;labelBackgroundColor=none;fontColor=default;" parent="WIyWlLk6GJQsqaUBKTNV-1" source="3SjeZ5jOU1wM5McMUVgE-0" target="3SjeZ5jOU1wM5McMUVgE-3" edge="1">
          <mxGeometry relative="1" as="geometry" />
        </mxCell>
        <mxCell id="3SjeZ5jOU1wM5McMUVgE-0" value="Evaluation metrics of XAI methods" style="rounded=1;whiteSpace=wrap;html=1;fontStyle=1;fontSize=15;labelBackgroundColor=none;" parent="WIyWlLk6GJQsqaUBKTNV-1" vertex="1">
          <mxGeometry x="310" y="340" width="230" height="70" as="geometry" />
        </mxCell>
        <mxCell id="3SjeZ5jOU1wM5McMUVgE-8" value="" style="rounded=1;orthogonalLoop=1;jettySize=auto;html=1;fontSize=15;labelBackgroundColor=none;fontColor=default;" parent="WIyWlLk6GJQsqaUBKTNV-1" source="3SjeZ5jOU1wM5McMUVgE-1" target="3SjeZ5jOU1wM5McMUVgE-7" edge="1">
          <mxGeometry relative="1" as="geometry" />
        </mxCell>
        <mxCell id="3SjeZ5jOU1wM5McMUVgE-1" value="Without perturbation" style="whiteSpace=wrap;html=1;rounded=1;fontStyle=1;fontSize=15;labelBackgroundColor=none;" parent="WIyWlLk6GJQsqaUBKTNV-1" vertex="1">
          <mxGeometry x="66" y="450" width="190" height="60" as="geometry" />
        </mxCell>
        <mxCell id="3SjeZ5jOU1wM5McMUVgE-17" value="" style="edgeStyle=orthogonalEdgeStyle;rounded=1;orthogonalLoop=1;jettySize=auto;html=1;labelBackgroundColor=none;fontColor=default;" parent="WIyWlLk6GJQsqaUBKTNV-1" source="3SjeZ5jOU1wM5McMUVgE-3" target="3SjeZ5jOU1wM5McMUVgE-16" edge="1">
          <mxGeometry relative="1" as="geometry" />
        </mxCell>
        <mxCell id="3SjeZ5jOU1wM5McMUVgE-19" value="" style="edgeStyle=orthogonalEdgeStyle;rounded=1;orthogonalLoop=1;jettySize=auto;html=1;labelBackgroundColor=none;fontColor=default;" parent="WIyWlLk6GJQsqaUBKTNV-1" source="3SjeZ5jOU1wM5McMUVgE-3" target="3SjeZ5jOU1wM5McMUVgE-18" edge="1">
          <mxGeometry relative="1" as="geometry" />
        </mxCell>
        <mxCell id="3SjeZ5jOU1wM5McMUVgE-21" value="" style="edgeStyle=orthogonalEdgeStyle;rounded=1;orthogonalLoop=1;jettySize=auto;html=1;labelBackgroundColor=none;fontColor=default;" parent="WIyWlLk6GJQsqaUBKTNV-1" source="3SjeZ5jOU1wM5McMUVgE-3" target="3SjeZ5jOU1wM5McMUVgE-20" edge="1">
          <mxGeometry relative="1" as="geometry" />
        </mxCell>
        <mxCell id="3SjeZ5jOU1wM5McMUVgE-3" value="With perturbation" style="whiteSpace=wrap;html=1;rounded=1;fontStyle=1;fontSize=15;labelBackgroundColor=none;" parent="WIyWlLk6GJQsqaUBKTNV-1" vertex="1">
          <mxGeometry x="540" y="450" width="240" height="60" as="geometry" />
        </mxCell>
        <mxCell id="3SjeZ5jOU1wM5McMUVgE-7" value="&lt;div style=&quot;forced-color-adjust: none; font-size: 15px;&quot;&gt;&lt;b style=&quot;forced-color-adjust: none; background-color: initial;&quot;&gt;&lt;font style=&quot;forced-color-adjust: none;&quot; color=&quot;#0000ff&quot;&gt;Identity&lt;/font&gt;&lt;/b&gt;&lt;br style=&quot;forced-color-adjust: none;&quot;&gt;&lt;/div&gt;&lt;div style=&quot;forced-color-adjust: none; font-size: 15px;&quot;&gt;&lt;span style=&quot;forced-color-adjust: none; background-color: initial; font-size: 15px;&quot;&gt;&lt;b style=&quot;forced-color-adjust: none;&quot;&gt;&lt;font style=&quot;forced-color-adjust: none;&quot; color=&quot;#0000ff&quot;&gt;Separability&lt;/font&gt;&lt;/b&gt;&lt;/span&gt;&lt;/div&gt;&lt;div style=&quot;forced-color-adjust: none; font-size: 15px;&quot;&gt;&lt;b style=&quot;forced-color-adjust: none;&quot;&gt;&lt;font color=&quot;#00cc00&quot; style=&quot;forced-color-adjust: none;&quot;&gt;Stability&lt;/font&gt;&lt;br style=&quot;forced-color-adjust: none; font-size: 15px;&quot;&gt;&lt;/b&gt;&lt;div style=&quot;forced-color-adjust: none; font-size: 15px;&quot;&gt;&lt;br style=&quot;forced-color-adjust: none; color: rgb(0, 0, 0); font-family: Helvetica; font-size: 15px; font-style: normal; font-variant-ligatures: normal; font-variant-caps: normal; font-weight: 400; letter-spacing: normal; orphans: 2; text-align: center; text-indent: 0px; text-transform: none; widows: 2; word-spacing: 0px; -webkit-text-stroke-width: 0px; white-space: normal; text-decoration-thickness: initial; text-decoration-style: initial; text-decoration-color: initial; background-color: rgb(251, 251, 251);&quot;&gt;&lt;/div&gt;&lt;/div&gt;" style="whiteSpace=wrap;html=1;rounded=1;fontStyle=1;fontSize=15;labelBackgroundColor=none;" parent="WIyWlLk6GJQsqaUBKTNV-1" vertex="1">
          <mxGeometry x="62" y="672" width="191" height="83" as="geometry" />
        </mxCell>
        <mxCell id="3SjeZ5jOU1wM5McMUVgE-25" value="" style="rounded=1;orthogonalLoop=1;jettySize=auto;html=1;labelBackgroundColor=none;fontColor=default;" parent="WIyWlLk6GJQsqaUBKTNV-1" source="3SjeZ5jOU1wM5McMUVgE-16" target="3SjeZ5jOU1wM5McMUVgE-24" edge="1">
          <mxGeometry relative="1" as="geometry" />
        </mxCell>
        <mxCell id="3SjeZ5jOU1wM5McMUVgE-16" value="&lt;strong style=&quot;text-align: start; color: rgb(14, 16, 26); background: none; margin-top: 0pt; margin-bottom: 0pt;&quot;&gt;Perturbing all features&lt;/strong&gt;" style="whiteSpace=wrap;html=1;fontSize=15;rounded=1;fontStyle=1;labelBackgroundColor=none;" parent="WIyWlLk6GJQsqaUBKTNV-1" vertex="1">
          <mxGeometry x="570" y="560" width="180" height="60" as="geometry" />
        </mxCell>
        <mxCell id="3SjeZ5jOU1wM5McMUVgE-23" value="" style="rounded=1;orthogonalLoop=1;jettySize=auto;html=1;labelBackgroundColor=none;fontColor=default;" parent="WIyWlLk6GJQsqaUBKTNV-1" source="3SjeZ5jOU1wM5McMUVgE-18" target="3SjeZ5jOU1wM5McMUVgE-22" edge="1">
          <mxGeometry relative="1" as="geometry" />
        </mxCell>
        <mxCell id="3SjeZ5jOU1wM5McMUVgE-18" value="Perturbing the most relevent features" style="whiteSpace=wrap;html=1;fontSize=15;rounded=1;fontStyle=1;labelBackgroundColor=none;" parent="WIyWlLk6GJQsqaUBKTNV-1" vertex="1">
          <mxGeometry x="310" y="560" width="230" height="60" as="geometry" />
        </mxCell>
        <mxCell id="3SjeZ5jOU1wM5McMUVgE-27" value="" style="rounded=1;orthogonalLoop=1;jettySize=auto;html=1;labelBackgroundColor=none;fontColor=default;" parent="WIyWlLk6GJQsqaUBKTNV-1" source="3SjeZ5jOU1wM5McMUVgE-20" target="3SjeZ5jOU1wM5McMUVgE-26" edge="1">
          <mxGeometry relative="1" as="geometry" />
        </mxCell>
        <mxCell id="3SjeZ5jOU1wM5McMUVgE-20" value="&lt;strong style=&quot;text-align: start; color: rgb(14, 16, 26); background: none; margin-top: 0pt; margin-bottom: 0pt;&quot;&gt;Perturbing the most irrelevant features&lt;/strong&gt;" style="whiteSpace=wrap;html=1;fontSize=15;rounded=1;fontStyle=1;labelBackgroundColor=none;" parent="WIyWlLk6GJQsqaUBKTNV-1" vertex="1">
          <mxGeometry x="770" y="560" width="290" height="60" as="geometry" />
        </mxCell>
        <mxCell id="3SjeZ5jOU1wM5McMUVgE-22" value="&lt;div style=&quot;forced-color-adjust: none; font-size: 15px;&quot;&gt;&lt;span style=&quot;forced-color-adjust: none; background-color: initial; font-size: 15px;&quot;&gt;&lt;br class=&quot;Apple-interchange-newline&quot;&gt; &lt;span&gt;&amp;nbsp;&lt;/span&gt;&lt;font color=&quot;#ff3333&quot; style=&quot;forced-color-adjust: none;&quot;&gt;Coherence&lt;/font&gt;&lt;/span&gt;&lt;/div&gt;&lt;div style=&quot;forced-color-adjust: none; font-size: 15px;&quot;&gt;&lt;span style=&quot;forced-color-adjust: none; background-color: initial; font-size: 15px;&quot;&gt; &lt;span&gt;&amp;nbsp;&lt;/span&gt;&lt;font color=&quot;#ff3333&quot; style=&quot;forced-color-adjust: none;&quot;&gt;Congruence&lt;/font&gt;&lt;/span&gt;&lt;/div&gt;&lt;div style=&quot;forced-color-adjust: none; font-size: 15px;&quot;&gt;&lt;span style=&quot;forced-color-adjust: none; background-color: initial; font-size: 15px;&quot;&gt; &lt;span&gt;&amp;nbsp;&lt;/span&gt;&lt;font color=&quot;#cccc00&quot; style=&quot;forced-color-adjust: none;&quot;&gt;Completeness&lt;/font&gt;&lt;/span&gt;&lt;/div&gt;&lt;div style=&quot;forced-color-adjust: none; font-size: 15px;&quot;&gt;&lt;span style=&quot;forced-color-adjust: none; background-color: initial; font-size: 15px;&quot;&gt;&amp;nbsp; &lt;span&gt;&amp;nbsp;&lt;/span&gt;&lt;font style=&quot;forced-color-adjust: none;&quot; color=&quot;#0000ff&quot;&gt;Faithfullness&lt;/font&gt;&lt;/span&gt;&lt;/div&gt;&lt;div style=&quot;forced-color-adjust: none; font-size: 15px;&quot;&gt;&lt;div style=&quot;forced-color-adjust: none; font-size: 15px;&quot;&gt;&lt;br style=&quot;forced-color-adjust: none; color: rgb(0, 0, 0); font-family: Helvetica; font-size: 15px; font-style: normal; font-variant-ligatures: normal; font-variant-caps: normal; font-weight: 400; letter-spacing: normal; orphans: 2; text-align: center; text-indent: 0px; text-transform: none; widows: 2; word-spacing: 0px; -webkit-text-stroke-width: 0px; white-space: normal; text-decoration-thickness: initial; text-decoration-style: initial; text-decoration-color: initial; background-color: rgb(251, 251, 251);&quot;&gt;&lt;/div&gt;&lt;/div&gt;" style="whiteSpace=wrap;html=1;fontSize=15;rounded=1;fontStyle=1;labelBackgroundColor=none;" parent="WIyWlLk6GJQsqaUBKTNV-1" vertex="1">
          <mxGeometry x="327" y="673" width="196" height="82" as="geometry" />
        </mxCell>
        <mxCell id="3SjeZ5jOU1wM5McMUVgE-24" value="&lt;div style=&quot;forced-color-adjust: none; font-size: 15px;&quot;&gt;&lt;span style=&quot;forced-color-adjust: none; background-color: initial; font-size: 15px;&quot;&gt;&lt;font color=&quot;#00cc00&quot; style=&quot;forced-color-adjust: none;&quot;&gt;&lt;b style=&quot;forced-color-adjust: none;&quot;&gt;&lt;br class=&quot;Apple-interchange-newline&quot;&gt;Instability&lt;/b&gt;&lt;/font&gt;&lt;/span&gt;&lt;/div&gt;&lt;div style=&quot;forced-color-adjust: none; font-size: 15px;&quot;&gt;&lt;div style=&quot;forced-color-adjust: none; font-size: 15px;&quot;&gt;&lt;br style=&quot;forced-color-adjust: none; color: rgb(0, 0, 0); font-family: Helvetica; font-size: 15px; font-style: normal; font-variant-ligatures: normal; font-variant-caps: normal; font-weight: 400; letter-spacing: normal; orphans: 2; text-align: center; text-indent: 0px; text-transform: none; widows: 2; word-spacing: 0px; -webkit-text-stroke-width: 0px; white-space: normal; text-decoration-thickness: initial; text-decoration-style: initial; text-decoration-color: initial; background-color: rgb(251, 251, 251);&quot;&gt;&lt;/div&gt;&lt;/div&gt;" style="whiteSpace=wrap;html=1;fontSize=15;rounded=1;fontStyle=1;labelBackgroundColor=none;" parent="WIyWlLk6GJQsqaUBKTNV-1" vertex="1">
          <mxGeometry x="601.5" y="683" width="117" height="66" as="geometry" />
        </mxCell>
        <mxCell id="3SjeZ5jOU1wM5McMUVgE-26" value="&lt;span style=&quot;font-family: Helvetica; font-size: 15px; font-style: normal; font-variant-ligatures: normal; font-variant-caps: normal; letter-spacing: normal; orphans: 2; text-align: center; text-indent: 0px; text-transform: none; widows: 2; word-spacing: 0px; -webkit-text-stroke-width: 0px; white-space: normal; background-color: rgb(251, 251, 251); text-decoration-thickness: initial; text-decoration-style: initial; text-decoration-color: initial; float: none; display: inline !important;&quot;&gt;&lt;b style=&quot;&quot;&gt;&lt;font color=&quot;#00cc00&quot;&gt;Acumen&lt;/font&gt;&lt;/b&gt;&lt;/span&gt;" style="whiteSpace=wrap;html=1;fontSize=15;rounded=1;fontStyle=0;labelBackgroundColor=none;" parent="WIyWlLk6GJQsqaUBKTNV-1" vertex="1">
          <mxGeometry x="827" y="685" width="179" height="62" as="geometry" />
        </mxCell>
        <mxCell id="Q9SxMGF7BFSb0kjvzfcH-1" value="" style="ellipse;whiteSpace=wrap;html=1;aspect=fixed;fillColor=#00CC00;" vertex="1" parent="WIyWlLk6GJQsqaUBKTNV-1">
          <mxGeometry x="803" y="251" width="24" height="24" as="geometry" />
        </mxCell>
        <mxCell id="Q9SxMGF7BFSb0kjvzfcH-2" value="" style="ellipse;whiteSpace=wrap;html=1;aspect=fixed;fillColor=#FF3333;fontColor=#FF3333;labelBorderColor=#FF3333;labelBackgroundColor=#FF3333;" vertex="1" parent="WIyWlLk6GJQsqaUBKTNV-1">
          <mxGeometry x="805" y="376" width="24" height="24" as="geometry" />
        </mxCell>
        <mxCell id="Q9SxMGF7BFSb0kjvzfcH-3" value="" style="ellipse;whiteSpace=wrap;html=1;aspect=fixed;fillColor=#0000FF;" vertex="1" parent="WIyWlLk6GJQsqaUBKTNV-1">
          <mxGeometry x="805" y="292" width="24" height="24" as="geometry" />
        </mxCell>
        <mxCell id="Q9SxMGF7BFSb0kjvzfcH-4" value="" style="ellipse;whiteSpace=wrap;html=1;aspect=fixed;fillColor=#CCCC00;" vertex="1" parent="WIyWlLk6GJQsqaUBKTNV-1">
          <mxGeometry x="803" y="331" width="24" height="24" as="geometry" />
        </mxCell>
        <mxCell id="Q9SxMGF7BFSb0kjvzfcH-7" value="&lt;span style=&quot;color: rgb(0, 0, 0); font-family: Helvetica; font-size: 14px; font-style: normal; font-variant-ligatures: normal; font-variant-caps: normal; letter-spacing: normal; orphans: 2; text-align: center; text-indent: 0px; text-transform: none; widows: 2; word-spacing: 0px; -webkit-text-stroke-width: 0px; white-space: normal; background-color: rgb(251, 251, 251); text-decoration-thickness: initial; text-decoration-style: initial; text-decoration-color: initial; float: none; display: inline !important;&quot;&gt;Robustness&lt;/span&gt;" style="text;whiteSpace=wrap;html=1;fontStyle=1;fontSize=14;" vertex="1" parent="WIyWlLk6GJQsqaUBKTNV-1">
          <mxGeometry x="844" y="247" width="87" height="36" as="geometry" />
        </mxCell>
        <mxCell id="Q9SxMGF7BFSb0kjvzfcH-8" value="&lt;span style=&quot;color: rgb(0, 0, 0); font-family: Helvetica; font-size: 14px; font-style: normal; font-variant-ligatures: normal; font-variant-caps: normal; letter-spacing: normal; orphans: 2; text-align: center; text-indent: 0px; text-transform: none; widows: 2; word-spacing: 0px; -webkit-text-stroke-width: 0px; white-space: normal; background-color: rgb(251, 251, 251); text-decoration-thickness: initial; text-decoration-style: initial; text-decoration-color: initial; float: none; display: inline !important;&quot;&gt;Coherence&lt;/span&gt;" style="text;whiteSpace=wrap;html=1;fontStyle=1;fontSize=14;" vertex="1" parent="WIyWlLk6GJQsqaUBKTNV-1">
          <mxGeometry x="844" y="376" width="84" height="36" as="geometry" />
        </mxCell>
        <mxCell id="Q9SxMGF7BFSb0kjvzfcH-9" value="&lt;span style=&quot;color: rgb(0, 0, 0); font-family: Helvetica; font-size: 14px; font-style: normal; font-variant-ligatures: normal; font-variant-caps: normal; letter-spacing: normal; orphans: 2; text-align: center; text-indent: 0px; text-transform: none; widows: 2; word-spacing: 0px; -webkit-text-stroke-width: 0px; white-space: normal; background-color: rgb(251, 251, 251); text-decoration-thickness: initial; text-decoration-style: initial; text-decoration-color: initial; float: none; display: inline !important;&quot;&gt;Fidelity&lt;/span&gt;" style="text;whiteSpace=wrap;html=1;fontStyle=1;fontSize=14;" vertex="1" parent="WIyWlLk6GJQsqaUBKTNV-1">
          <mxGeometry x="844" y="295" width="62" height="36" as="geometry" />
        </mxCell>
        <mxCell id="Q9SxMGF7BFSb0kjvzfcH-10" value="&lt;span style=&quot;color: rgb(0, 0, 0); font-family: Helvetica; font-size: 14px; font-style: normal; font-variant-ligatures: normal; font-variant-caps: normal; letter-spacing: normal; orphans: 2; text-align: center; text-indent: 0px; text-transform: none; widows: 2; word-spacing: 0px; -webkit-text-stroke-width: 0px; white-space: normal; background-color: rgb(251, 251, 251); text-decoration-thickness: initial; text-decoration-style: initial; text-decoration-color: initial; float: none; display: inline !important;&quot;&gt;Representativeness&lt;/span&gt;" style="text;whiteSpace=wrap;html=1;fontStyle=1;fontSize=14;" vertex="1" parent="WIyWlLk6GJQsqaUBKTNV-1">
          <mxGeometry x="841" y="331" width="129" height="36" as="geometry" />
        </mxCell>
      </root>
    </mxGraphModel>
  </diagram>
</mxfile>
